<svg width="374.2" height="100" viewBox="0 0 374.2 100" xmlns="http://www.w3.org/2000/svg">
<g id="svgGroup" stroke-linecap="round" fillRule="evenodd" fontSize="9pt" stroke="white" strokeWidth="0.35mm" fill="white" style="stroke:white;stroke-width:0.35mm;fill:white">
<path d="M 50.8 44.8 L 49.9 48 A 518.832 518.832 0 0 0 48.641 51.75 Q 48.155 53.219 47.732 54.531 A 251.562 251.562 0 0 0 46.95 57 A 152.35 152.35 0 0 0 46.158 59.627 Q 45.556 61.694 45.15 63.35 Q 44.569 65.721 44.347 67.651 A 23.497 23.497 0 0 0 44.3 68.1 A 43.25 43.25 0 0 0 44.1 72.196 A 19.075 19.075 0 0 0 44.1 72.2 Q 44.1 74.2 44.2 76.3 Q 44.3 78.4 44.4 81.1 A 11.813 11.813 0 0 1 42.745 80.65 Q 41.902 80.349 41.236 79.936 A 5.929 5.929 0 0 1 40.5 79.4 Q 39.1 78.2 38.6 76.5 Q 38.1 74.8 38.1 73.1 Q 38.1 72.4 38.15 71.7 A 7.908 7.908 0 0 1 38.254 70.881 A 10.083 10.083 0 0 1 38.4 70.2 A 31.749 31.749 0 0 1 31.012 77.279 A 30.11 30.11 0 0 1 30.3 77.75 A 18.755 18.755 0 0 1 20.351 80.695 A 22.536 22.536 0 0 1 19.9 80.7 Q 14.4 80.7 9.9 77.75 A 19.276 19.276 0 0 1 4.462 72.291 A 24.999 24.999 0 0 1 2.7 69.2 A 25.949 25.949 0 0 1 0.633 62.814 Q 0.079 59.937 0.01 56.648 A 45.026 45.026 0 0 1 0 55.7 A 52.815 52.815 0 0 1 1.904 41.826 A 59.868 59.868 0 0 1 2.4 40.1 Q 4.8 32.2 8.95 25.05 A 67.717 67.717 0 0 1 17.83 12.962 A 63.142 63.142 0 0 1 18.5 12.25 A 51.672 51.672 0 0 1 24.749 6.653 A 41.748 41.748 0 0 1 29.85 3.35 A 27.271 27.271 0 0 1 36.186 0.814 A 22.649 22.649 0 0 1 41.8 0.1 A 17.364 17.364 0 0 1 44.487 0.295 Q 45.895 0.516 47.046 0.987 A 8.441 8.441 0 0 1 48.5 1.75 Q 51 3.4 52.1 6.05 Q 53.2 8.7 53.2 11.7 Q 53.2 15.2 51.95 18.65 Q 50.7 22.1 48.6 24.4 A 8.403 8.403 0 0 1 47.126 25.698 A 5.472 5.472 0 0 1 44 26.7 Q 42.9 26.7 41.95 26.05 Q 41.019 25.413 40.232 23.768 A 11.931 11.931 0 0 1 40.2 23.7 A 8.245 8.245 0 0 0 41.107 22.935 Q 42.171 21.913 43.45 20.15 A 31.464 31.464 0 0 0 46.252 15.455 A 35.583 35.583 0 0 0 46.7 14.5 Q 48.1 11.4 48.1 8.9 Q 48.1 6.8 46.8 5.4 A 3.835 3.835 0 0 0 45.353 4.449 Q 44.199 4 42.5 4 A 13.246 13.246 0 0 0 37.518 5.017 Q 35.43 5.859 33.3 7.4 A 37.887 37.887 0 0 0 28.419 11.648 A 51.526 51.526 0 0 0 24.3 16.45 Q 20 22.1 16.5 29.1 Q 13 36.1 11 43.35 A 57.092 57.092 0 0 0 9.383 51.269 A 45.862 45.862 0 0 0 9 57.1 A 34.231 34.231 0 0 0 9.42 62.641 Q 9.904 65.584 10.944 67.956 A 16.177 16.177 0 0 0 12.9 71.3 A 14.743 14.743 0 0 0 15.852 74.256 A 10.783 10.783 0 0 0 22.4 76.4 A 11.71 11.71 0 0 0 28.794 74.478 A 15.006 15.006 0 0 0 29.9 73.7 A 23.735 23.735 0 0 0 34.128 69.446 A 29.803 29.803 0 0 0 36.05 66.65 Q 38.7 62.3 40.3 57.2 A 48.091 48.091 0 0 0 41.933 50.329 A 41.282 41.282 0 0 0 42.3 47.3 A 58.612 58.612 0 0 0 39.164 46.736 A 45.77 45.77 0 0 0 36.9 46.45 Q 34.4 46.2 31.8 46.2 Q 30.3 46.2 28.75 46.25 Q 27.2 46.3 25.4 46.3 A 12.336 12.336 0 0 1 26.025 44.376 Q 26.454 43.369 27.034 42.619 A 5.782 5.782 0 0 1 28.1 41.55 A 6.904 6.904 0 0 1 30.945 40.287 A 9.724 9.724 0 0 1 32.9 40.1 Q 35.9 40.1 38.95 41.05 Q 42 42 45.05 43.1 A 52.434 52.434 0 0 0 48.371 44.179 A 41.286 41.286 0 0 0 50.8 44.8 Z M 280.2 54.9 L 282.4 56.4 Q 278.9 63 274.1 68.55 A 39.54 39.54 0 0 1 265.11 76.314 A 36.934 36.934 0 0 1 263.25 77.4 Q 257.2 80.7 250.2 80.7 Q 242.8 80.7 238.15 77.1 Q 233.5 73.5 231.35 67.85 Q 229.2 62.2 229.2 56.1 Q 229.2 48.2 231.6 40.25 Q 234 32.3 238.2 25.05 Q 242.4 17.8 247.75 12.2 A 49.28 49.28 0 0 1 254.53 6.248 A 41.285 41.285 0 0 1 259.15 3.35 Q 265.2 0.1 271.2 0.1 A 15.259 15.259 0 0 1 274.396 0.418 A 10.696 10.696 0 0 1 278.35 2.1 A 6.191 6.191 0 0 1 280.645 5.239 Q 281.024 6.332 281.144 7.688 A 14.886 14.886 0 0 1 281.2 9 A 20.305 20.305 0 0 1 280.969 11.966 Q 280.749 13.458 280.317 15.091 A 35.013 35.013 0 0 1 280.15 15.7 Q 279.1 19.4 277.35 22.8 A 27.495 27.495 0 0 1 275.621 25.724 Q 274.624 27.184 273.521 28.327 A 16.911 16.911 0 0 1 273.45 28.4 Q 271.3 30.6 269.1 30.6 Q 268.2 30.6 267.2 29.95 A 4.179 4.179 0 0 1 266.378 29.234 Q 266.052 28.873 265.751 28.403 A 8.855 8.855 0 0 1 265.4 27.8 A 47.014 47.014 0 0 0 266.574 26.412 Q 267.211 25.631 267.902 24.728 A 90.164 90.164 0 0 0 268.75 23.6 Q 270.6 21.1 272.3 18.3 A 43.523 43.523 0 0 0 274.185 14.869 A 35.676 35.676 0 0 0 275.1 12.85 A 17.024 17.024 0 0 0 275.77 10.94 Q 276.2 9.412 276.2 8.1 A 5.05 5.05 0 0 0 276.027 6.745 A 3.863 3.863 0 0 0 275.15 5.15 Q 274.14 4.044 271.695 4.002 A 11.363 11.363 0 0 0 271.5 4 A 12.338 12.338 0 0 0 267.043 4.877 Q 265.39 5.514 263.689 6.615 A 24.306 24.306 0 0 0 262.55 7.4 A 38.23 38.23 0 0 0 257.743 11.612 A 52.525 52.525 0 0 0 253.6 16.45 Q 249.3 22.1 245.8 29.05 Q 242.3 36 240.3 43.35 A 58.559 58.559 0 0 0 238.683 51.381 A 47.222 47.222 0 0 0 238.3 57.3 Q 238.3 62.1 239.7 66.5 A 16.387 16.387 0 0 0 241.911 71.023 A 14.431 14.431 0 0 0 244.3 73.65 A 11.123 11.123 0 0 0 249.423 76.097 A 15.861 15.861 0 0 0 252.6 76.4 Q 258 76.4 263.3 73.4 A 38.499 38.499 0 0 0 271.495 67.128 A 44.528 44.528 0 0 0 273.05 65.5 Q 277.5 60.6 280.2 54.9 Z M 170.6 55.3 L 172.2 56.8 Q 170.6 61.4 167.3 65.15 A 42.295 42.295 0 0 1 160.39 71.477 A 39.545 39.545 0 0 1 160.15 71.65 A 59.342 59.342 0 0 1 157.129 73.678 Q 155.599 74.635 154.187 75.364 A 31.577 31.577 0 0 1 153.1 75.9 A 129.44 129.44 0 0 1 149.483 83.72 A 106.915 106.915 0 0 1 147.2 88 A 46.202 46.202 0 0 1 144.615 92.097 Q 142.678 94.82 140.6 96.75 A 13.63 13.63 0 0 1 137.847 98.762 A 9.812 9.812 0 0 1 133.1 100 Q 130.7 100 128.65 98.55 A 4.585 4.585 0 0 1 126.888 96.015 Q 126.654 95.221 126.61 94.255 A 10.016 10.016 0 0 1 126.6 93.8 Q 126.6 90.7 128.45 88.15 A 19.204 19.204 0 0 1 131.132 85.191 A 24.564 24.564 0 0 1 133.3 83.45 A 51.195 51.195 0 0 1 138.933 79.955 A 56.611 56.611 0 0 1 139.8 79.5 Q 143.3 77.7 146.5 76.1 A 96.584 96.584 0 0 0 148.173 71.581 A 112.255 112.255 0 0 0 148.8 69.7 A 95.216 95.216 0 0 0 150.006 65.654 A 122.075 122.075 0 0 0 150.9 62.2 A 49.014 49.014 0 0 1 146.976 66.834 A 37.814 37.814 0 0 1 143.35 70.15 A 16.33 16.33 0 0 1 140.272 72.115 A 11.349 11.349 0 0 1 135.3 73.3 A 8.469 8.469 0 0 1 132.468 72.846 A 7.199 7.199 0 0 1 129.25 70.55 Q 127.087 67.906 127.003 63.643 A 17.602 17.602 0 0 1 127 63.3 Q 127 58 129.65 53.35 Q 132.3 48.7 136.45 45.05 A 34.134 34.134 0 0 1 143.862 40.039 A 31.52 31.52 0 0 1 145.35 39.35 A 27.18 27.18 0 0 1 149.542 37.913 A 19.665 19.665 0 0 1 154.3 37.3 A 13.99 13.99 0 0 1 155.917 37.387 Q 157.822 37.609 158.9 38.4 Q 159.934 39.159 160.256 40.06 A 2.485 2.485 0 0 1 160.4 40.9 A 3.009 3.009 0 0 1 160.31 41.654 A 2.135 2.135 0 0 1 159.75 42.65 A 19.067 19.067 0 0 1 159.522 42.874 Q 159.062 43.319 158.9 43.4 A 4.576 4.576 0 0 0 158.095 42.605 A 3.613 3.613 0 0 0 157.05 42.05 Q 156 41.7 154.6 41.7 A 13.955 13.955 0 0 0 147.891 43.445 A 16.926 16.926 0 0 0 147.1 43.9 A 24.459 24.459 0 0 0 141.053 49.168 A 27.669 27.669 0 0 0 140.7 49.6 A 32.612 32.612 0 0 0 137.356 54.645 A 28.489 28.489 0 0 0 136.3 56.85 A 22.769 22.769 0 0 0 135.264 59.789 Q 134.841 61.341 134.735 62.765 A 12.613 12.613 0 0 0 134.7 63.7 A 7.887 7.887 0 0 0 134.792 64.948 Q 134.896 65.596 135.118 66.121 A 3.624 3.624 0 0 0 135.6 66.95 A 3.11 3.11 0 0 0 136.448 67.716 A 2.772 2.772 0 0 0 137.9 68.1 A 5.795 5.795 0 0 0 139.998 67.667 Q 141.764 66.979 143.85 65.201 A 27.08 27.08 0 0 0 144.8 64.35 A 51.441 51.441 0 0 0 149.205 59.641 A 65.971 65.971 0 0 0 152.5 55.3 Q 152.8 54.3 152.95 53.5 A 128.797 128.797 0 0 1 153.107 52.678 Q 153.191 52.245 153.287 51.764 A 208.174 208.174 0 0 1 153.3 51.7 A 21.25 21.25 0 0 1 153.963 49.571 Q 154.35 48.535 154.815 47.692 A 10.202 10.202 0 0 1 155.4 46.75 A 4.196 4.196 0 0 1 158.448 44.945 A 6.061 6.061 0 0 1 159.2 44.9 A 12.414 12.414 0 0 1 159.603 44.907 Q 159.828 44.914 160.083 44.929 A 24.923 24.923 0 0 1 160.4 44.95 A 7.908 7.908 0 0 1 161.219 45.054 A 10.083 10.083 0 0 1 161.9 45.2 Q 161.9 46.971 160.932 51.015 A 85.312 85.312 0 0 1 160.9 51.15 A 120.736 120.736 0 0 1 160.052 54.452 Q 159.262 57.362 158.2 60.8 A 185.365 185.365 0 0 1 155.369 69.219 A 207.294 207.294 0 0 1 154.3 72.1 A 29.192 29.192 0 0 0 158.577 69.767 A 35.445 35.445 0 0 0 160.65 68.3 A 34.344 34.344 0 0 0 165.732 63.51 A 38.814 38.814 0 0 0 166.5 62.6 Q 169.2 59.3 170.6 55.3 Z M 372.6 55.5 L 374.2 56.7 A 25.37 25.37 0 0 1 371.569 62.673 A 22.334 22.334 0 0 1 369.65 65.35 Q 366.6 69 362.8 71.55 A 53.259 53.259 0 0 1 357.337 74.777 A 46.313 46.313 0 0 1 355.2 75.8 A 121.457 121.457 0 0 1 351.298 84.288 A 104.269 104.269 0 0 1 349.4 87.85 A 48.422 48.422 0 0 1 346.823 91.988 Q 345.41 94.009 343.93 95.603 A 26.052 26.052 0 0 1 342.85 96.7 A 13.718 13.718 0 0 1 340.312 98.646 A 9.397 9.397 0 0 1 335.5 100 Q 333 100 330.95 98.5 A 4.826 4.826 0 0 1 329.062 95.517 A 7.605 7.605 0 0 1 328.9 93.9 Q 328.9 90.7 330.7 88.15 A 18.718 18.718 0 0 1 333.536 84.997 A 23.268 23.268 0 0 1 335.4 83.5 A 49.556 49.556 0 0 1 340.059 80.519 A 56.289 56.289 0 0 1 341.75 79.6 Q 345.2 77.8 348.6 76.1 Q 349.8 73 351.2 68.5 Q 352.6 64 353.7 59.6 A 53.691 53.691 0 0 1 349.437 65.142 A 45.353 45.353 0 0 1 347.05 67.65 A 13.321 13.321 0 0 1 344.102 69.852 A 10.18 10.18 0 0 1 339.2 71.1 A 9.621 9.621 0 0 1 336.832 70.792 A 12.202 12.202 0 0 1 335.45 70.35 A 6.886 6.886 0 0 1 332.492 68.142 A 8.463 8.463 0 0 1 332.2 67.75 A 6.729 6.729 0 0 1 331.207 65.546 Q 330.9 64.359 330.9 62.9 Q 330.9 60.839 331.453 58.196 A 38.792 38.792 0 0 1 331.85 56.5 Q 332.8 52.8 334.25 49.3 A 45.538 45.538 0 0 1 335.445 46.646 Q 336.33 44.845 337.25 43.45 Q 338.772 41.142 339.957 41.101 A 1.236 1.236 0 0 1 340 41.1 Q 340.5 41.1 341.6 41.5 A 9.929 9.929 0 0 1 343.454 42.409 A 11.25 11.25 0 0 1 343.75 42.6 A 4.561 4.561 0 0 1 344.295 43.022 Q 344.56 43.263 344.731 43.515 A 1.829 1.829 0 0 1 345 44.1 Q 344.187 45.184 343.211 47.166 A 41.536 41.536 0 0 0 343 47.6 Q 341.9 49.9 340.9 52.7 A 54.501 54.501 0 0 0 339.418 57.523 A 49.273 49.273 0 0 0 339.25 58.2 Q 338.6 60.9 338.6 62.8 Q 338.6 64.311 339.18 65.376 A 4.04 4.04 0 0 0 339.25 65.5 A 2.065 2.065 0 0 0 340.386 66.404 Q 340.941 66.6 341.7 66.6 A 5.671 5.671 0 0 0 343.724 66.204 Q 344.497 65.91 345.3 65.397 A 12.178 12.178 0 0 0 346.15 64.8 Q 348.5 63 350.8 60.15 Q 353.1 57.3 354.9 54.3 A 9.529 9.529 0 0 0 355.111 53.562 Q 355.211 53.155 355.296 52.682 A 20.084 20.084 0 0 0 355.4 52.05 Q 355.6 50.7 356 49.2 A 7.316 7.316 0 0 1 356.761 47.342 A 9.861 9.861 0 0 1 357.65 46.05 Q 358.9 44.5 361.2 44.5 A 8.947 8.947 0 0 1 362.428 44.582 A 8.188 8.188 0 0 1 362.55 44.6 A 17.643 17.643 0 0 1 363.073 44.689 Q 363.537 44.775 364.1 44.9 Q 364.1 46.137 363.386 49.311 A 94.684 94.684 0 0 1 363.05 50.75 A 158.663 158.663 0 0 1 362.171 54.209 Q 361.767 55.733 361.299 57.393 A 281.081 281.081 0 0 1 360.3 60.85 Q 358.6 66.6 356.4 72.4 A 24.282 24.282 0 0 0 360.755 70.157 Q 362.662 68.933 364.587 67.278 A 42.248 42.248 0 0 0 365.3 66.65 A 24.658 24.658 0 0 0 369.601 61.486 Q 371.287 58.828 372.6 55.5 Z M 303.7 42.2 L 303.7 39.5 A 49.016 49.016 0 0 0 304.901 39.67 Q 305.509 39.748 306.05 39.8 Q 307.1 39.9 308.3 40 Q 310.4 34.7 312.85 29.7 Q 315.3 24.7 317.7 20.8 Q 320.1 16.9 322.3 14.6 A 13.721 13.721 0 0 1 323.33 13.621 Q 324.435 12.684 325.366 12.411 A 2.612 2.612 0 0 1 326.1 12.3 A 2.646 2.646 0 0 1 327.837 12.946 A 3.374 3.374 0 0 1 327.9 13 A 2.271 2.271 0 0 1 328.626 14.264 A 3.453 3.453 0 0 1 328.7 15 A 5.249 5.249 0 0 1 328.547 16.177 Q 328.273 17.352 327.511 18.967 A 31.955 31.955 0 0 1 326.65 20.65 A 176.646 176.646 0 0 1 324.972 23.645 Q 323.456 26.294 321.55 29.45 Q 318.5 34.5 315.7 40.3 L 317.35 40.3 L 319 40.3 A 192.081 192.081 0 0 0 324.311 40.229 A 164.046 164.046 0 0 0 326.6 40.15 Q 330.2 40 333.9 39.6 L 333.9 42.4 Q 328.4 43 323.85 43.3 Q 319.3 43.6 315.4 43.6 L 314.75 43.6 L 314.1 43.6 Q 311.9 48.7 310.35 54 A 38.406 38.406 0 0 0 308.953 61.126 A 33.314 33.314 0 0 0 308.8 64.3 A 21.66 21.66 0 0 0 308.881 66.247 Q 309.064 68.264 309.658 69.507 A 4.486 4.486 0 0 0 310.1 70.25 A 4.091 4.091 0 0 0 312.279 71.733 Q 312.987 71.946 313.85 71.989 A 9.002 9.002 0 0 0 314.3 72 Q 319.3 72 324.5 67.4 Q 329.547 62.935 333.275 55.456 A 55.953 55.953 0 0 0 333.5 55 L 334.9 56 Q 332.4 61.8 328.6 66.5 A 35.89 35.89 0 0 1 324.379 70.929 A 28.624 28.624 0 0 1 320.35 73.9 A 18.599 18.599 0 0 1 314.833 76.18 A 16.705 16.705 0 0 1 311.1 76.6 A 12.255 12.255 0 0 1 308.176 76.271 A 8.397 8.397 0 0 1 304.15 74.05 A 7.932 7.932 0 0 1 302.278 70.958 Q 301.854 69.723 301.695 68.212 A 18.295 18.295 0 0 1 301.6 66.3 Q 301.6 62.1 303.2 55.9 Q 304.8 49.7 307.2 43.1 A 18.324 18.324 0 0 0 306.253 42.891 A 23.066 23.066 0 0 0 305.45 42.75 A 6.1 6.1 0 0 1 304.031 42.352 A 5.557 5.557 0 0 1 303.7 42.2 Z M 194.8 54.9 L 196.9 56.1 A 65.601 65.601 0 0 1 193.357 62.546 Q 191.403 65.648 189.284 68.09 A 34.995 34.995 0 0 1 187.6 69.9 A 20.745 20.745 0 0 1 184.023 72.804 Q 180.541 75 176.8 75 A 10.675 10.675 0 0 1 174.43 74.755 Q 172.883 74.402 171.785 73.543 A 5.906 5.906 0 0 1 170.35 71.9 Q 168.5 68.8 168.5 64.5 A 32.957 32.957 0 0 1 168.797 60.238 Q 169.068 58.164 169.588 55.855 A 65.397 65.397 0 0 1 170.3 53 A 113.273 113.273 0 0 1 172.999 44.496 A 138.621 138.621 0 0 1 175.05 39.15 Q 178 31.9 181.55 24.95 A 181.339 181.339 0 0 1 185.544 17.543 A 143.277 143.277 0 0 1 188.65 12.35 A 92.152 92.152 0 0 1 191.19 8.511 Q 193.32 5.47 195.25 3.35 A 24.015 24.015 0 0 1 196.525 2.045 Q 198.539 0.146 199.895 0.01 A 2.058 2.058 0 0 1 200.1 0 Q 201.248 0 202.076 1.191 A 4.629 4.629 0 0 1 202.15 1.3 A 9.442 9.442 0 0 1 202.954 2.836 A 13.007 13.007 0 0 1 203.5 4.45 A 15.967 15.967 0 0 1 203.842 6.002 Q 203.975 6.807 203.996 7.534 A 9.283 9.283 0 0 1 204 7.8 A 14.488 14.488 0 0 1 203.855 9.75 Q 203.577 11.783 202.768 14.465 A 50.358 50.358 0 0 1 202.65 14.85 A 63.328 63.328 0 0 1 201.143 19.126 Q 200.152 21.661 198.85 24.45 A 102.319 102.319 0 0 1 194.766 32.269 A 118.799 118.799 0 0 1 193.05 35.15 Q 189.7 40.6 185.7 45.55 Q 181.7 50.5 177.1 54.1 Q 176.7 56.6 176.35 59.1 Q 176 61.6 176 63.7 A 18.945 18.945 0 0 0 176.091 65.627 Q 176.289 67.556 176.918 68.754 A 4.673 4.673 0 0 0 177.15 69.15 Q 178.283 70.874 180.242 70.9 A 4.528 4.528 0 0 0 180.3 70.9 Q 182.9 70.9 185.55 68.5 A 27.195 27.195 0 0 0 188.295 65.597 A 36.833 36.833 0 0 0 190.6 62.45 Q 193 58.8 194.8 54.9 Z M 93.6 55.4 L 95.2 56.6 A 19.005 19.005 0 0 1 93.323 60.024 Q 91.777 62.232 89.726 63.575 A 11.995 11.995 0 0 1 89.45 63.75 A 17.051 17.051 0 0 1 86.553 65.196 Q 84.432 66 82.4 66 Q 81.1 66 79.8 65.75 A 11.051 11.051 0 0 1 78.035 65.261 A 9.691 9.691 0 0 1 77.4 65 A 41.185 41.185 0 0 1 77.347 65.066 A 38.048 38.048 0 0 1 69.75 72.2 A 18.053 18.053 0 0 1 66.222 74.17 A 13.101 13.101 0 0 1 61.2 75.2 Q 56.8 75.2 55.1 72.35 A 12.121 12.121 0 0 1 53.427 66.788 A 14.682 14.682 0 0 1 53.4 65.9 A 21.985 21.985 0 0 1 54.152 60.275 A 25.071 25.071 0 0 1 54.4 59.4 Q 55.4 56.1 57.1 53.2 A 21.404 21.404 0 0 1 58.841 50.649 A 15.892 15.892 0 0 1 60.9 48.5 A 8.708 8.708 0 0 1 62.422 47.439 Q 63.791 46.7 65.2 46.7 Q 65.636 46.7 66.204 46.832 A 8.01 8.01 0 0 1 66.65 46.95 A 4.698 4.698 0 0 1 67.137 47.121 Q 67.374 47.22 67.56 47.335 A 1.876 1.876 0 0 1 67.9 47.6 A 12.137 12.137 0 0 0 67.126 48.543 Q 66.748 49.05 66.354 49.664 A 29.144 29.144 0 0 0 65.55 51 Q 64.3 53.2 63.25 55.75 Q 62.2 58.3 61.55 60.85 A 22.746 22.746 0 0 0 61.083 63.142 Q 60.9 64.384 60.9 65.5 Q 60.9 67.009 61.245 68.088 A 4.583 4.583 0 0 0 61.7 69.1 A 2.633 2.633 0 0 0 63.607 70.346 A 4.226 4.226 0 0 0 64.3 70.4 A 4.756 4.756 0 0 0 65.817 70.128 Q 67.278 69.636 69.05 68.25 Q 71.8 66.1 74.3 63 Q 71.2 60.3 69.75 56.75 A 19.307 19.307 0 0 1 68.504 51.941 A 24.909 24.909 0 0 1 68.3 48.7 Q 68.3 46.2 69.4 43.4 Q 70.5 40.6 72.8 38.7 A 8.04 8.04 0 0 1 76.197 37.073 Q 77.398 36.8 78.8 36.8 A 11.784 11.784 0 0 1 80.851 36.966 Q 83.438 37.424 84.65 39.15 Q 86.3 41.5 86.3 44.8 Q 86.3 47.85 84.975 51.545 A 32.624 32.624 0 0 1 84.35 53.15 Q 82.4 57.8 79.7 62 A 6.126 6.126 0 0 0 82.747 62.8 A 7.199 7.199 0 0 0 82.8 62.8 A 8.066 8.066 0 0 0 84.009 62.702 Q 84.616 62.609 85.296 62.43 A 17.798 17.798 0 0 0 86.4 62.1 A 11.433 11.433 0 0 0 89.092 60.772 A 14.407 14.407 0 0 0 90.45 59.75 A 11.087 11.087 0 0 0 92.732 57.059 A 14.151 14.151 0 0 0 93.6 55.4 Z M 130.6 55.4 L 132.2 56.6 A 19.005 19.005 0 0 1 130.323 60.024 Q 128.777 62.232 126.726 63.575 A 11.995 11.995 0 0 1 126.45 63.75 A 17.051 17.051 0 0 1 123.553 65.196 Q 121.432 66 119.4 66 Q 118.1 66 116.8 65.75 A 11.051 11.051 0 0 1 115.035 65.261 A 9.691 9.691 0 0 1 114.4 65 A 41.185 41.185 0 0 1 114.347 65.066 A 38.048 38.048 0 0 1 106.75 72.2 A 18.053 18.053 0 0 1 103.222 74.17 A 13.101 13.101 0 0 1 98.2 75.2 Q 93.8 75.2 92.1 72.35 A 12.121 12.121 0 0 1 90.427 66.788 A 14.682 14.682 0 0 1 90.4 65.9 A 21.985 21.985 0 0 1 91.152 60.275 A 25.071 25.071 0 0 1 91.4 59.4 Q 92.4 56.1 94.1 53.2 A 21.404 21.404 0 0 1 95.841 50.649 A 15.892 15.892 0 0 1 97.9 48.5 A 8.708 8.708 0 0 1 99.422 47.439 Q 100.791 46.7 102.2 46.7 Q 102.636 46.7 103.204 46.832 A 8.01 8.01 0 0 1 103.65 46.95 A 4.698 4.698 0 0 1 104.137 47.121 Q 104.374 47.22 104.56 47.335 A 1.876 1.876 0 0 1 104.9 47.6 A 12.137 12.137 0 0 0 104.126 48.543 Q 103.748 49.05 103.354 49.664 A 29.144 29.144 0 0 0 102.55 51 Q 101.3 53.2 100.25 55.75 Q 99.2 58.3 98.55 60.85 A 22.746 22.746 0 0 0 98.083 63.142 Q 97.9 64.384 97.9 65.5 Q 97.9 67.009 98.245 68.088 A 4.583 4.583 0 0 0 98.7 69.1 A 2.633 2.633 0 0 0 100.607 70.346 A 4.226 4.226 0 0 0 101.3 70.4 A 4.756 4.756 0 0 0 102.817 70.128 Q 104.278 69.636 106.05 68.25 Q 108.8 66.1 111.3 63 Q 108.2 60.3 106.75 56.75 A 19.307 19.307 0 0 1 105.504 51.941 A 24.909 24.909 0 0 1 105.3 48.7 Q 105.3 46.2 106.4 43.4 Q 107.5 40.6 109.8 38.7 A 8.04 8.04 0 0 1 113.197 37.073 Q 114.398 36.8 115.8 36.8 A 11.784 11.784 0 0 1 117.851 36.966 Q 120.438 37.424 121.65 39.15 Q 123.3 41.5 123.3 44.8 Q 123.3 47.85 121.975 51.545 A 32.624 32.624 0 0 1 121.35 53.15 Q 119.4 57.8 116.7 62 A 6.126 6.126 0 0 0 119.747 62.8 A 7.199 7.199 0 0 0 119.8 62.8 A 8.066 8.066 0 0 0 121.009 62.702 Q 121.616 62.609 122.296 62.43 A 17.798 17.798 0 0 0 123.4 62.1 A 11.433 11.433 0 0 0 126.092 60.772 A 14.407 14.407 0 0 0 127.45 59.75 A 11.087 11.087 0 0 0 129.732 57.059 A 14.151 14.151 0 0 0 130.6 55.4 Z M 228.6 55.1 L 230.3 56.5 A 38.377 38.377 0 0 1 225.166 64.929 A 35.026 35.026 0 0 1 223.4 66.95 A 33.76 33.76 0 0 1 216.923 72.34 A 30.268 30.268 0 0 1 214.15 73.9 Q 209.1 76.4 203.8 76.4 A 18.667 18.667 0 0 1 200.072 76.051 Q 196.443 75.311 194.2 73 A 11.571 11.571 0 0 1 190.916 65.209 A 15.229 15.229 0 0 1 190.9 64.5 A 20.269 20.269 0 0 1 191.652 59.146 A 27.316 27.316 0 0 1 193.15 55.05 A 37.799 37.799 0 0 1 198.731 46.296 A 42.329 42.329 0 0 1 199.2 45.75 A 36.594 36.594 0 0 1 205.254 40.174 A 32.708 32.708 0 0 1 207.55 38.65 A 20.4 20.4 0 0 1 211.663 36.722 A 15.583 15.583 0 0 1 216.6 35.9 Q 219.1 35.9 221.35 37.2 Q 223.171 38.252 223.518 41.008 A 11.16 11.16 0 0 1 223.6 42.4 A 12.531 12.531 0 0 1 221.522 49.288 A 15.179 15.179 0 0 1 221.35 49.55 Q 219.1 52.9 215.45 55.5 A 34.435 34.435 0 0 1 207.903 59.54 A 38.227 38.227 0 0 1 207.35 59.75 A 35.028 35.028 0 0 1 200.152 61.606 A 31.841 31.841 0 0 1 198.5 61.8 L 198.3 63 A 5.947 5.947 0 0 0 198.247 63.414 Q 198.203 63.879 198.2 64.51 A 19.46 19.46 0 0 0 198.2 64.6 A 6.96 6.96 0 0 0 198.224 65.154 Q 198.271 65.728 198.404 66.494 A 24.308 24.308 0 0 0 198.45 66.75 Q 198.7 68.1 199.45 69.45 Q 200.2 70.8 201.8 71.7 A 6.352 6.352 0 0 0 203.383 72.313 Q 204.102 72.492 204.944 72.56 A 13.29 13.29 0 0 0 206 72.6 A 15.851 15.851 0 0 0 211.732 71.491 A 20.575 20.575 0 0 0 214.45 70.2 Q 218.7 67.8 222.4 63.85 Q 226.1 59.9 228.6 55.1 Z M 304.6 55.1 L 305.9 56.5 Q 303.034 64.142 298.547 68.767 A 24.591 24.591 0 0 1 297.15 70.1 Q 291.7 74.9 285.6 74.9 A 10.972 10.972 0 0 1 283.125 74.638 Q 281.439 74.248 280.233 73.275 A 6.462 6.462 0 0 1 279.3 72.35 A 9.15 9.15 0 0 1 277.274 67.447 A 11.992 11.992 0 0 1 277.2 66.1 Q 277.2 64.555 277.561 62.468 A 41.57 41.57 0 0 1 278 60.3 Q 278.8 56.8 280.25 52.95 A 53.597 53.597 0 0 1 283.482 45.913 A 49.635 49.635 0 0 1 283.6 45.7 A 31.088 31.088 0 0 1 285.31 42.964 Q 286.264 41.61 287.274 40.538 A 17.979 17.979 0 0 1 287.65 40.15 Q 289.8 38 291.9 38 Q 293 38 293.85 38.7 A 2.275 2.275 0 0 1 294.652 40.115 A 3.394 3.394 0 0 1 294.7 40.7 A 3.299 3.299 0 0 1 294.584 41.508 Q 294.377 42.316 293.801 43.434 A 21.767 21.767 0 0 1 293.15 44.6 Q 292.084 46.387 290.759 48.577 A 1038.588 1038.588 0 0 1 289.5 50.65 Q 287.4 54.1 285.85 57.8 Q 284.3 61.5 284.3 64.9 A 14.25 14.25 0 0 0 284.366 66.326 Q 284.515 67.798 284.998 68.655 A 2.599 2.599 0 0 0 285.5 69.3 Q 286.7 70.4 289 70.4 Q 291.54 70.4 294.386 68.503 A 20.184 20.184 0 0 0 296.35 67 Q 299.909 63.936 303.753 56.731 A 84.681 84.681 0 0 0 304.6 55.1 Z M 178.6 48.8 Q 182.1 45.2 185.2 40.8 Q 188.3 36.4 190.95 31.75 A 122.897 122.897 0 0 0 194.287 25.498 A 103.914 103.914 0 0 0 195.6 22.75 A 89.895 89.895 0 0 0 196.973 19.614 Q 198.012 17.106 198.7 14.95 Q 199.688 11.851 199.869 9.921 A 9.688 9.688 0 0 0 199.9 9.5 Q 199.9 9.198 199.843 9.039 A 0.405 0.405 0 0 0 199.8 8.95 L 199.7 8.8 Q 198.9 8.8 197.05 11.15 A 42.845 42.845 0 0 0 195.707 12.961 Q 194.358 14.875 192.75 17.5 Q 190.31 21.484 187.72 26.659 A 159.993 159.993 0 0 0 187.7 26.7 A 182.129 182.129 0 0 0 183.303 36.183 A 199.85 199.85 0 0 0 182.7 37.6 A 122.921 122.921 0 0 0 179.148 47.076 A 110.487 110.487 0 0 0 178.6 48.8 Z M 203.865 57.288 A 36.844 36.844 0 0 0 205.3 56.65 Q 208.6 55.1 211.6 52.75 A 25.5 25.5 0 0 0 215.013 49.554 A 21.707 21.707 0 0 0 216.55 47.6 Q 218.5 44.8 218.5 41.9 A 4.797 4.797 0 0 0 218.469 41.336 Q 218.399 40.743 218.167 40.392 A 1.252 1.252 0 0 0 218.1 40.3 A 1.173 1.173 0 0 0 217.614 39.95 Q 217.413 39.868 217.159 39.831 A 3.194 3.194 0 0 0 216.7 39.8 A 7.378 7.378 0 0 0 214.05 40.316 Q 212.915 40.75 211.75 41.55 A 24.94 24.94 0 0 0 208.913 43.835 A 32.509 32.509 0 0 0 206.75 46.05 Q 204.3 48.8 202.4 52.15 A 42.049 42.049 0 0 0 200.337 56.279 A 34.648 34.648 0 0 0 199.4 58.7 Q 201.421 58.311 203.865 57.288 Z M 334.7 96.5 A 2.523 2.523 0 0 0 335.755 96.226 Q 337.19 95.553 339.308 93.226 A 36.556 36.556 0 0 0 339.95 92.5 A 26.311 26.311 0 0 0 342.121 89.551 Q 344.187 86.338 346.305 81.52 A 99.193 99.193 0 0 0 347 79.9 Q 343.5 81.7 340.2 83.85 Q 336.9 86 334.7 88.4 A 9.153 9.153 0 0 0 333.286 90.396 A 6.925 6.925 0 0 0 332.5 93.6 A 3.676 3.676 0 0 0 332.65 94.614 Q 332.766 95.02 332.972 95.443 A 6.133 6.133 0 0 0 333 95.5 A 1.81 1.81 0 0 0 333.519 96.145 Q 333.985 96.5 334.7 96.5 Z M 76.6 60 Q 79.1 56.5 80.75 52.45 A 25.01 25.01 0 0 0 81.849 49.148 Q 82.4 46.966 82.4 45 A 13.268 13.268 0 0 0 82.344 43.734 Q 82.222 42.466 81.834 41.676 A 3.076 3.076 0 0 0 81.65 41.35 A 2.738 2.738 0 0 0 81.025 40.661 Q 80.427 40.204 79.613 40.2 A 2.941 2.941 0 0 0 79.6 40.2 Q 77.694 40.2 75.788 42.698 A 13.651 13.651 0 0 0 75.6 42.95 A 10.152 10.152 0 0 0 73.907 46.833 A 14.541 14.541 0 0 0 73.6 49.9 A 18.207 18.207 0 0 0 73.776 52.354 Q 73.94 53.557 74.256 54.872 A 30.628 30.628 0 0 0 74.35 55.25 A 15.261 15.261 0 0 0 75.083 57.457 Q 75.709 58.931 76.6 60 Z M 113.6 60 Q 116.1 56.5 117.75 52.45 A 25.01 25.01 0 0 0 118.849 49.148 Q 119.4 46.966 119.4 45 A 13.268 13.268 0 0 0 119.344 43.734 Q 119.222 42.466 118.834 41.676 A 3.076 3.076 0 0 0 118.65 41.35 A 2.738 2.738 0 0 0 118.025 40.661 Q 117.427 40.204 116.613 40.2 A 2.941 2.941 0 0 0 116.6 40.2 Q 114.694 40.2 112.788 42.698 A 13.651 13.651 0 0 0 112.6 42.95 A 10.152 10.152 0 0 0 110.907 46.833 A 14.541 14.541 0 0 0 110.6 49.9 A 18.207 18.207 0 0 0 110.776 52.354 Q 110.94 53.557 111.256 54.872 A 30.628 30.628 0 0 0 111.35 55.25 A 15.261 15.261 0 0 0 112.083 57.457 Q 112.709 58.931 113.6 60 Z M 132.7 95.9 Q 134.6 95.9 137.85 92.3 A 22.514 22.514 0 0 0 139.722 89.879 Q 141.595 87.125 143.635 82.856 A 102.097 102.097 0 0 0 144.9 80.1 A 102.785 102.785 0 0 0 140.384 82.495 A 85.082 85.082 0 0 0 137.9 83.95 A 28.651 28.651 0 0 0 135.33 85.704 Q 134.013 86.718 132.987 87.792 A 17.118 17.118 0 0 0 132.7 88.1 A 8.562 8.562 0 0 0 131.445 89.86 A 6.228 6.228 0 0 0 130.7 92.8 A 5.351 5.351 0 0 0 130.771 93.698 Q 130.858 94.207 131.05 94.618 A 2.816 2.816 0 0 0 131.3 95.05 Q 131.9 95.9 132.7 95.9 Z M 295.045 29.015 A 6.169 6.169 0 0 0 297.5 29.5 A 6.894 6.894 0 0 0 300.15 28.978 A 8.189 8.189 0 0 0 302.3 27.65 Q 304.5 25.8 304.5 23.7 A 5.827 5.827 0 0 0 304.479 23.199 Q 304.349 21.69 303.4 21 A 3.705 3.705 0 0 0 303.294 20.926 Q 302.659 20.497 301.835 20.322 A 5.929 5.929 0 0 0 300.6 20.2 A 8.826 8.826 0 0 0 297.979 20.6 A 10.611 10.611 0 0 0 295.35 21.85 A 9.002 9.002 0 0 0 295.251 21.915 Q 292.8 23.547 292.8 25.9 Q 292.8 27.7 294.25 28.6 A 5.944 5.944 0 0 0 295.045 29.015 Z" vector-effect="non-scaling-stroke"/></g></svg>